HIERARCHY
ROOT Hips
{
  OFFSET 0.0 0.0 0.0
  CHANNELS 6 XPOSITION YPOSITION ZPOSITION ZROTATION XROTATION YROTATION 
  JOINT RightUpLeg
  {
    OFFSET -0.089458 -0.0866707 0.00101652
    CHANNELS 3 ZROTATION XROTATION YROTATION 
    JOINT RightLeg
    {
      OFFSET 0.0 -0.444227 0.013727
      CHANNELS 3 ZROTATION XROTATION YROTATION 
      JOINT RightFoot
      {
        OFFSET 0.00253549 -0.420924 -0.0146059
        CHANNELS 3 ZROTATION XROTATION YROTATION 
        JOINT RightToes
        {
          OFFSET 0.0004 -0.0441509 0.084991
          CHANNELS 3 ZROTATION XROTATION YROTATION 
          End Site
          {
            OFFSET -0.0008 -0.00137448 0.0977979
          }
        }
      }
    }
  }
  JOINT Spine
  {
    OFFSET 0.0 0.118905 0.0
    CHANNELS 3 ZROTATION XROTATION YROTATION 
    JOINT Spine1
    {
      OFFSET 0.0 0.256574 0.00127663
      CHANNELS 3 ZROTATION XROTATION YROTATION 
      JOINT HEad
      {
        OFFSET 0.0 0.0873416 0.00011341
        CHANNELS 3 ZROTATION XROTATION YROTATION 
        End Site
        {
          OFFSET -0.0029 0.127742 0.0251395
        }
      }
      JOINT LeftShoulder1
      {
        OFFSET 0.0899 -0.00362252 -0.0022
        CHANNELS 3 ZROTATION XROTATION YROTATION 
        JOINT LeftArm
        {
          OFFSET 0.102827 -3.37999e-005 0.00322123
          CHANNELS 3 ZROTATION XROTATION YROTATION 
          JOINT LeftForeArm
          {
            OFFSET 0.262597 0.00099144 -0.0142434
            CHANNELS 3 ZROTATION XROTATION YROTATION 
            JOINT LeftHand
            {
              OFFSET 0.220902 0.00085362 0.0102216
              CHANNELS 3 ZROTATION XROTATION YROTATION 
              End Site
              {
                OFFSET 0.13419 -0.006 0.0150291
              }
            }
          }
        }
      }
      JOINT RightShoulder
      {
        OFFSET -0.0899 -0.00362252 -0.0022
        CHANNELS 3 ZROTATION XROTATION YROTATION 
        JOINT RightArm
        {
          OFFSET -0.102827 -3.38e-005 0.00322123
          CHANNELS 3 ZROTATION XROTATION YROTATION 
          JOINT RightForeArm
          {
            OFFSET -0.26364 0.00099144 -0.0142434
            CHANNELS 3 ZROTATION XROTATION YROTATION 
            JOINT RightHand
            {
              OFFSET -0.220324 0.00085362 0.0102216
              CHANNELS 3 ZROTATION XROTATION YROTATION 
              End Site
              {
                OFFSET -0.133284 -0.006 0.0150291
              }
            }
          }
        }
      }
    }
  }
  JOINT LeftUpLeg
  {
    OFFSET 0.089458 -0.0866707 0.00101652
    CHANNELS 3 ZROTATION XROTATION YROTATION 
    JOINT LeftLeg
    {
      OFFSET 0.0 -0.444227 0.013727
      CHANNELS 3 ZROTATION XROTATION YROTATION 
      JOINT LeftFoot
      {
        OFFSET -0.00253549 -0.420924 -0.0146059
        CHANNELS 3 ZROTATION XROTATION YROTATION 
        JOINT LeftToes
        {
          OFFSET -0.0004 -0.0441509 0.084991
          CHANNELS 3 ZROTATION XROTATION YROTATION 
          End Site
          {
            OFFSET 0.0008 -0.00047448 0.0977979
          }
        }
      }
    }
  }
}
MOTION
Frames: 4
Frame Time: 0.033333
1.23787677719 1.37575377439 -1.07900383613 2.29589978761 1.33894268701 82.2610703258 1.54070519443 -15.3040906845 4.19887842906 -1.26949855289 55.0969332985 -11.466146772 1.18150981485 -7.37390552512 -0.1770606347 0.0462047989973 0.000530889001377 0.662642008108 -8.68080416619 9.77973208478 -0.529457054552 2.5577865293 4.03610904472 -1.64088283193 -3.33496750142 19.2639577427 -1.42478162301 -30.1329265614 -3.33029735957 12.6889205344 -76.5660449354 -38.1624047421 -40.9246425255 -171.76569287 67.1704093924 169.807026843 9.40666202967 8.84100710695 -8.87040594868 30.3265419338 -1.15255258753 -7.26659300797 47.3088544936 -10.3724661462 12.6025416933 4.47516000787 53.0219764701 12.7838644327 -2.61292600614 9.77543504201 2.45790483109 -6.2747680051 -16.9300667353 -0.219183291766 0.455743038348 31.3149488538 11.8183727973 3.90936506628 -21.3890874331 0.599483355574 -1.32367996738e-009 8.75231734221e-006 -1.46859249917e-008 
1.25613040456 1.38390910976 -1.07978115583 2.38511038246 0.913046241312 82.028051592 2.11133377553 -18.2812608607 4.37709599375 -1.17923781645 54.6331429633 -11.9580151611 1.00707713545 -8.23191815752 -0.168152080331 0.0462047989973 0.000530889001377 0.662642008108 -9.24837154188 10.3351237945 -0.833164404205 3.37701329218 3.98218000547 -2.24469428629 -3.34885882553 19.1073654107 -0.98958587476 -29.6380998466 -3.11767869335 12.2217082744 -76.7574404964 -36.4677460165 -41.8556417056 -172.926087369 69.240175277 169.703768043 9.4235462573 8.8196755724 -9.13094863722 30.2657395898 -1.2193960204 -7.45679243202 46.3450499149 -10.8805152535 11.4687234609 4.22533644747 52.6575961232 12.9455939207 -2.66690157606 9.76974634821 2.61436931049 -5.87413600226 -14.1859238306 0.209551324314 0.426723298792 28.6922894012 11.5245858705 3.70254395 -21.3073761725 0.570236378827 -1.32367996738e-009 8.75231734221e-006 -1.46859249917e-008 
1.27426658388 1.39110078659 -1.08047076523 2.30570708548 0.465079159891 81.9122798856 2.56006183607 -20.8901677274 4.27536160672 -1.03180540845 52.012262775 -12.059233442 1.48888743068 -8.88166210044 -0.164883367906 0.0462047989973 0.000530889001377 0.662642008108 -9.62128108754 10.8139712817 -1.17845266486 4.1568001949 3.85798112626 -2.85384897628 -3.29509285704 19.1128193167 -0.763378867351 -29.1621346992 -2.92668056406 11.7969900363 -77.1234976547 -35.109921485 -42.8942368557 -174.931294305 71.024357292 170.724690078 9.57550430595 8.78059835261 -9.3953708732 30.1358601276 -1.27877160191 -7.63427148251 45.4948484576 -11.2330102175 10.2522607933 3.93942814391 52.0180103791 13.3009037765 -2.55486491589 9.77907638662 2.48714636503 -5.41262182759 -11.80651132 0.55145842789 0.395503624674 26.4227626816 11.2513791575 3.43696997337 -21.3416500618 0.539569523145 -1.32367996738e-009 8.75231734221e-006 -1.46859249917e-008 
1.29282083578 1.39653039024 -1.08101449568 2.24392098081 0.117214210368 81.7320926651 2.80986469246 -23.0573560152 3.86817390294 -0.975542792383 47.9399776333 -11.2383753311 1.77218820281 -9.24321560283 -0.15769992989 0.0462047989973 0.000530889001377 0.662642008108 -9.8106796719 11.2599075025 -1.43768032854 4.64358094686 3.60225286732 -3.28078659894 -3.15034343273 19.2381652408 -0.749557339235 -28.738533197 -2.74539133524 11.3774226147 -77.4265872992 -33.9637542706 -43.8521982075 -177.028367286 72.6592723528 171.973084734 9.58890001446 8.76682954501 -9.55486945069 30.1298154102 -1.33901323006 -7.8009946926 44.6730674174 -12.4611140888 9.04452283855 3.97202650238 52.3592158942 13.1110902581 -2.60334090286 9.77660215059 2.3924679903 -5.19519940395 -9.4292802011 0.470012690906 0.427512879332 24.1793272845 11.4543262759 3.23296460258 -21.4642160989 0.518881093592 -1.32367996738e-009 8.75231734221e-006 -1.46859249917e-008 
